<?xml version="1.0" encoding="UTF-8" standalone="no"?>
<svg width="80px" height="80px" viewBox="0 0 80 80" version="1.1" xmlns="http://www.w3.org/2000/svg" xmlns:xlink="http://www.w3.org/1999/xlink" xmlns:sketch="http://www.bohemiancoding.com/sketch/ns">
    <!-- Generator: Sketch 3.0.4 (8054) - http://www.bohemiancoding.com/sketch -->
    <title>camera</title>
    <desc>Created with Sketch.</desc>
    <defs></defs>
    <g id="Page-1" stroke="none" stroke-width="1" fill="none" fill-rule="evenodd" sketch:type="MSPage">
        <path d="M53.5,31.125 L49,31.125 L44.5,26.625 L35.5,26.625 L31,31.125 L26.5,31.125 C25.8671843,31.1484376 25.3398459,31.3710916 24.9179688,31.7929688 C24.4960916,32.2148459 24.2734376,32.7421843 24.25,33.375 L24.25,49.125 C24.2734376,49.7578157 24.4960916,50.2851541 24.9179688,50.7070312 C25.3398459,51.1289084 25.8671843,51.3515624 26.5,51.375 L53.5,51.375 C54.1328157,51.3515624 54.6601541,51.1289084 55.0820312,50.7070312 C55.5039084,50.2851541 55.7265624,49.7578157 55.75,49.125 L55.75,33.375 C55.7265624,32.7421843 55.5039084,32.2148459 55.0820312,31.7929688 C54.6601541,31.3710916 54.1328157,31.1484376 53.5,31.125 Z M36.625,28.875 L43.375,28.875 L45.625,31.125 L34.375,31.125 L36.625,28.875 Z M27.625,49.125 C27.2968734,49.125 27.0273448,49.0195323 26.8164062,48.8085938 C26.6054677,48.5976552 26.5,48.3281266 26.5,48 L26.5,37.875 L28.75,37.875 L28.75,35.625 L26.5,35.625 L26.5,34.5 C26.5,34.1718734 26.6054677,33.9023448 26.8164062,33.6914062 C27.0273448,33.4804677 27.2968734,33.375 27.625,33.375 L34.0585938,33.375 L33.6367188,33.7617188 C31.8788975,35.6132905 31,37.734363 31,40.125 C31,42.515637 31.8788975,44.6367095 33.6367188,46.4882812 L36.2734375,49.125 L27.625,49.125 Z M40,35.625 C38.7343687,35.6484376 37.6738324,36.0878863 36.8183594,36.9433594 C35.9628863,37.7988324 35.5234376,38.8593687 35.5,40.125 C35.5234376,41.3906313 35.9628863,42.4511676 36.8183594,43.3066406 C37.6738324,44.1621137 38.7343687,44.6015624 40,44.625 C40.2109386,44.625 40.4101553,44.6132814 40.5976562,44.5898438 C39.753902,44.449218 39.068362,44.0742218 38.5410156,43.4648438 C38.0136692,42.8554657 37.7382814,42.1054732 37.7148438,41.2148438 C37.7382814,40.2539014 38.0664031,39.4570344 38.6992188,38.8242188 C39.3320344,38.1914031 40.1406201,37.8632814 41.125,37.8398438 C41.9921918,37.8632814 42.7304657,38.1386692 43.3398438,38.6660156 C43.9492218,39.193362 44.324218,39.878902 44.4648438,40.7226562 C44.4882814,40.5351553 44.5,40.3359386 44.5,40.125 C44.4765624,38.8593687 44.0371137,37.7988324 43.1816406,36.9433594 C42.3261676,36.0878863 41.2656313,35.6484376 40,35.625 Z M40,46.875 C38.0781154,46.8281248 36.4843813,46.1718813 35.21875,44.90625 C33.9531187,43.6406187 33.2968752,42.0468846 33.25,40.125 C33.2968752,38.2031154 33.9531187,36.6093813 35.21875,35.34375 C36.4843813,34.0781187 38.0781154,33.4218752 40,33.375 C41.9218846,33.4218752 43.5156187,34.0781187 44.78125,35.34375 C46.0468813,36.6093813 46.7031248,38.2031154 46.75,40.125 C46.7031248,42.0468846 46.0468813,43.6406187 44.78125,44.90625 C43.5156187,46.1718813 41.9218846,46.8281248 40,46.875 Z M51.25,39 L45.9414062,33.375 L51.25,33.375 L51.25,39 Z" id="ï–" fill="#000000" sketch:type="MSShapeGroup"></path>
    </g>
</svg>