<?xml version="1.0" encoding="UTF-8" standalone="no"?>
<svg width="64px" height="80px" viewBox="0 0 64 80" version="1.1" xmlns="http://www.w3.org/2000/svg" xmlns:xlink="http://www.w3.org/1999/xlink" xmlns:sketch="http://www.bohemiancoding.com/sketch/ns">
    <!-- Generator: Sketch 3.0.4 (8054) - http://www.bohemiancoding.com/sketch -->
    <title>minilock_file_icon_black</title>
    <desc>Created with Sketch.</desc>
    <defs></defs>
    <g id="Page-1" stroke="none" stroke-width="1" fill="none" fill-rule="evenodd" sketch:type="MSPage">
        <g id="icon" sketch:type="MSLayerGroup">
            <path d="M48,0 L0,0 L0,80 L64,80 L64,17.1428571 L48,0 Z" id="back" fill="#FFFFFF" sketch:type="MSShapeGroup"></path>
            <path d="M48,0 L0,0 L0,80 L64,80 L64,17.1428571 L48,0 Z" id="border" fill="#000000" sketch:type="MSShapeGroup"></path>
            <path d="M58.6666667,74.2857143 L5.33333333,74.2857143 L5.33333333,5.71428571 L42.6666667,5.71428571 L58.6666667,22.8571429 L58.6666667,74.2857143 Z" id="front" fill="#FFFFFF" sketch:type="MSShapeGroup"></path>
        </g>
        <path d="M37.2,50.3364486 C38.5254834,50.3364486 39.6,49.2569109 39.6,47.9252336 C39.6,46.5935564 38.5254834,45.5140187 37.2,45.5140187 C35.8745166,45.5140187 34.8,46.5935564 34.8,47.9252336 C34.8,49.2569109 35.8745166,50.3364486 37.2,50.3364486 Z M26.8,50.3364486 C28.1254834,50.3364486 29.2,49.2569109 29.2,47.9252336 C29.2,46.5935564 28.1254834,45.5140187 26.8,45.5140187 C25.4745166,45.5140187 24.4,46.5935564 24.4,47.9252336 C24.4,49.2569109 25.4745166,50.3364486 26.8,50.3364486 Z M26.8,36.6728972 L26.8,34.6635514 L26.8025142,34.6635514 C26.8008414,34.5967773 26.8,34.5297958 26.8,34.4626168 C26.8,30.1346658 30.292179,26.6261682 34.6,26.6261682 C38.907821,26.6261682 42.4,30.1346658 42.4,34.4626168 C42.4,34.5297958 42.3991586,34.5967773 42.3974858,34.6635514 L42.4,34.6635514 L42.4,36.6728972 L47.9101375,36.6728972 L48,36.6728972 L48,34.4626168 C48,27.0274189 42.0006156,21 34.6,21 C27.1993844,21 21.2,27.0274189 21.2,34.4626168 L21.2,36.6728972 L21.2898625,36.6728972 L26.8,36.6728972 L26.8,36.6728972 Z M24,58.7757009 C22.4536027,58.7757009 21.2,57.5162403 21.2,55.9626168 L21.2,42.2990654 L42.8,42.2990654 L42.8,55.9626168 C42.8,57.5162403 41.5463973,58.7757009 40,58.7757009 L24,58.7757009 L24,58.7757009 Z M24,64 C19.581722,64 16,60.401541 16,55.9626168 L16,36.6728972 L48,36.6728972 L48,55.9626168 C48,60.401541 44.418278,64 40,64 L24,64 L24,64 Z" id="Oval-1" fill="#000000" sketch:type="MSShapeGroup"></path>
    </g>
</svg>